<!DOCTYPE svg PUBLIC "-//W3C//DTD SVG 1.1//EN" "http://www.w3.org/Graphics/SVG/1.1/DTD/svg11.dtd">
<!-- Uploaded to: SVG Repo, www.svgrepo.com, Transformed by: SVG Repo Mixer Tools -->
<svg fill="#000000" height="169px" width="169px" version="1.1" id="Layer_1" xmlns="http://www.w3.org/2000/svg" xmlns:xlink="http://www.w3.org/1999/xlink" viewBox="0 0 512.00 512.00" xml:space="preserve">
<g id="SVGRepo_bgCarrier" stroke-width="0"/>
<g id="SVGRepo_tracerCarrier" stroke-linecap="round" stroke-linejoin="round"/>
<g id="SVGRepo_iconCarrier"> <g> <g> <path d="M425.956,477.812h-1.489V428.64c0-4.147-1.508-8.152-4.242-11.269l-141.49-161.37L420.225,94.63 c2.734-3.117,4.242-7.122,4.242-11.27V34.188h1.49c9.44,0,17.094-7.654,17.094-17.094S435.396,0,425.956,0H86.044 C76.604,0,68.95,7.654,68.95,17.094s7.654,17.094,17.094,17.094h1.491V83.36c0,4.147,1.508,8.152,4.24,11.27l141.49,161.371 L91.775,417.37c-2.733,3.117-4.24,7.122-4.24,11.269v49.173h-1.491c-9.44,0-17.094,7.654-17.094,17.094S76.604,512,86.044,512 h339.91c9.44,0,17.094-7.654,17.094-17.094S435.396,477.812,425.956,477.812z M121.723,34.188h268.556v32.079H121.723V34.188z M165.878,127.287l-23.527-26.832h227.299l-23.266,26.534H168.997C167.93,126.99,166.891,127.101,165.878,127.287z M195.593,161.178h120.815l-60.408,68.894L195.593,161.178z M238.905,301.424v23.102c0.001,9.442,7.654,17.094,17.095,17.094 c9.44,0,17.094-7.654,17.094-17.094v-23.102l96.556,110.122h-227.3L238.905,301.424z M390.278,477.812H121.723v-32.079h268.556 V477.812z"/> </g> </g> <g> <g> <circle cx="255.999" cy="376.261" r="18.803"/> </g> </g> </g>
</svg>